<?xml version="1.0" encoding="utf-8" ?><svg xmlns="http://www.w3.org/2000/svg" xmlns:xlink="http://www.w3.org/1999/xlink" width="448" height="447" viewBox="0 0 448 447"><path fill="#F5F4E6" d="M0 0L448 0L448 447L0 447L0 0Z"/><path fill="#E3753B" d="M238.837 51.1058C251.4 50.4184 265.085 52.4153 277.177 55.7837C287.362 58.6207 296.652 63.0499 305.995 67.9338C312.409 71.2864 318.968 74.7413 325.003 78.7447C344.067 91.391 361.365 109.477 371.135 130.342C374.425 137.369 376.944 145.008 378.949 152.495C379.777 155.587 380.123 159.202 381.307 162.135C382.224 164.408 383.938 166.137 385.096 168.26C387.958 173.505 385.905 210.655 384.702 217.928C383.321 226.276 380.944 234.54 378.456 242.616C379.692 244.816 380.987 247.423 381.958 249.738C388.597 265.566 384.067 287.123 377.609 302.432C370.115 320.197 356.211 339.197 337.783 346.625C334.753 347.846 329.393 349.75 326.112 349.309C324.498 349.091 322.642 348.171 320.844 348.535C318.989 348.911 316.664 349.531 314.887 350.09C307.986 352.26 301.236 353.09 294.442 349.999C291.775 348.785 288.749 347.257 286.031 345.928C283.18 344.534 278.664 342.689 276.075 341.052C267.972 335.927 262.058 328.913 258.597 319.984C255.182 311.172 254.901 304.78 254.723 295.602C254.414 279.755 257.062 265.925 263.458 251.374C271.735 232.544 286.181 214.445 305.875 206.92C316.214 202.969 329.998 203.335 340.472 206.738C343.757 207.806 348.28 209.869 351.523 211.31C354.063 205.544 355.929 187.486 355.82 180.702C355.798 179.285 354.305 176.412 354.009 174.628C353.2 169.753 352.849 164.618 351.816 159.809C352.529 158.317 353.176 157.393 354.101 156.014C354.027 154.918 353.869 153.639 353.674 152.58C350.102 133.107 342.178 115.264 327.233 101.988C302.822 80.3045 269.21 70.8473 236.868 75.9719C204.217 81.2797 174.452 97.843 152.73 122.792C147.524 128.652 142.695 135.415 138.093 141.765C139.434 142.421 140.393 143.137 141.612 143.991L141.787 144.479C140.977 146.837 135.805 154.971 134.171 157.178C133.222 158.348 130.846 160.273 130.33 161.666C128.931 165.449 122.686 182.623 123.579 185.606C125.256 186.741 130.257 185.079 132.032 184.273C138.623 181.281 144.463 181.905 151.544 182.328C161.579 182.927 171.085 189.452 177.554 196.942C186.677 207.504 192.716 224.235 194.735 237.918C196.2 247.848 195.944 263.835 195.3 274.065C194.058 293.779 185.767 319.894 170.532 333.293C162.381 340.408 156.177 341.451 146.268 342.454C136.014 343.492 131.371 339.501 122.778 338.926L122.423 338.904C116.837 345.621 113.019 357.505 106.55 361.612C105.387 361.363 101.474 360.022 100.054 359.601C95.1892 364.224 97.2681 369.939 100.254 375.085C108.986 390.133 127.372 389.295 142.103 385.976C142.92 385.792 145.401 383.589 146.355 383.169C149.897 381.164 150.449 384.342 151.545 386.913C151.734 385.355 151.394 380.44 153.916 380.656C155.233 381.669 155.319 384.229 156.075 385.925C157.236 384.997 156.729 380.887 159.302 379.938C160.274 380.545 160.32 382.458 160.843 383.604C161.32 384.65 161.775 385.425 162.376 386.39C162.288 384.657 162.077 382.785 162.29 381.064C162.39 380.257 162.571 379.354 163.269 378.85C165.73 377.069 181.956 375.23 185.153 375.831C186.178 376.023 186.729 376.359 187.295 377.253C189.445 380.651 189.768 386.735 188.984 390.599C185.719 393.989 176.759 393.926 172.161 394.44C166.881 395.03 164.223 392.769 158.792 394.956C156.19 393.596 156.975 393.551 154.04 394.719C153.11 395.089 151.636 393.979 150.771 393.435C147.402 397.051 146.306 393.056 143.162 393.319C127.224 394.655 112.466 397.876 99.5871 385.311C93.5394 379.411 90.0017 374.047 89.9756 364.967C89.9636 360.804 89.3782 357.771 87.3636 354.013C81.1462 352.085 77.9978 350.379 75.7634 343.934C76.5008 339.889 87.2252 322.089 89.8475 317.9C78.6262 309.069 73.3534 298.779 68.9989 285.494C65.3064 274.229 66.5221 265.458 66.1949 253.905C65.8581 242.009 68.9713 226.972 76.3169 217.407C83.0104 208.69 83.3609 209.51 84.9026 198.959C85.3745 195.811 85.9925 192.687 86.7546 189.596C89.0887 180.377 92.1862 171.205 95.6696 162.391C98.2873 155.767 101.926 150.564 102.846 143.45C103.144 141.144 106.405 135.939 107.674 133.685C109.509 130.425 110.586 129.051 114.257 128.186C117.315 121.826 127.234 108.997 132.013 103.621C160.338 71.765 196.227 53.5292 238.837 51.1058Z"/><path fill="#F5F4E6" d="M361.882 239.095C366.008 238.766 369.936 240.51 372.981 243.227C379.052 248.559 380.512 254.28 381.177 261.767C382.778 279.782 379.529 294.919 370.243 310.515C366.388 316.989 362.872 322.847 357.583 328.602C349.659 337.223 341.847 343.653 329.709 344.33C325.85 344.823 320.927 343.684 317.93 341.161C313.366 337.318 310.809 329.671 310.5 323.872C309.241 300.249 318.876 274.94 333.488 256.607C341.198 247.265 349.576 240.221 361.882 239.095Z"/><path fill="#E3753B" d="M361.011 253.352C371.916 252.432 378.007 257.626 379.428 268.505C381.937 287.707 371.828 307.471 360.919 322.602C356.282 329.033 350.596 333.488 342.691 334.492C330.387 334.861 324.624 327.799 323.75 315.932C322.408 297.697 329.075 280.073 340.715 266.188C345.631 260.324 353.064 253.967 361.011 253.352Z"/><path fill="#F5F4E6" d="M362.886 261.312C364.68 261.136 367.147 261.204 368.668 262.117C381.196 269.635 375.881 291.154 370.901 301.409C365.304 312.937 358.315 323.298 346.396 327.691C339.419 328.498 333.544 324.568 332.777 317.327C330.915 299.747 336.871 281.986 349.261 269.294C353.332 265.124 357.05 262.267 362.886 261.312Z"/><path fill="#E3753B" d="M357.837 280.308C372.304 278.778 364.322 305.511 352.495 310.118C340.116 312.262 343.348 285.72 357.837 280.308Z"/><path fill="#F5F4E6" d="M360.217 282.64C364.849 283.085 363.196 289.339 360.203 291.768C355.095 290.656 357.124 285.217 360.217 282.64Z"/><path fill="#F5F4E6" d="M362.416 254.828C363.573 254.686 364.235 254.373 364.923 255.371C364.318 256.735 360.75 256.741 359.152 257.623C337.747 269.446 324.241 296.954 329.145 321.122C329.654 323.628 330.866 326.308 331.888 328.641L331.368 328.917C328.571 328.267 326.517 320.206 326.104 317.68C322.699 296.838 339.899 258.102 362.416 254.828Z"/><path fill="#E3753B" d="M158.811 312.828C158.249 313.429 157.927 313.866 157.187 314.234C157.086 314.189 154.027 310.025 151.6 309.183C149.998 308.626 144.96 302.549 143.773 300.746C140.13 295.211 137.385 287.086 135.909 280.541C135.06 269.151 134.358 256.422 136.182 245.07C138.209 233.262 146.976 212.471 161.766 215.363C172.963 217.553 179.902 235.263 181.54 245.027C182.3 249.554 185.16 252.917 183.439 258.225C182.52 261.062 182.105 258.945 180.371 259.936C180.379 260.868 181.068 260.499 182.051 261.802L181.822 262.216C180.802 262.589 180.595 262.681 179.698 263.287C179.737 264.306 179.768 265.168 179.883 266.188L179.912 266.391C180.946 266.805 181.357 266.977 182.43 267.218C182.019 268.176 181.529 268.368 180.633 268.965C181.61 269.789 182.462 270.273 182.75 271.386C181.962 273.393 181.959 273.113 183.751 274.116L183.811 274.544C183.186 275.471 182.844 275.28 181.927 275.842C181.714 277.065 183.648 279.25 184.417 280.267L184.291 280.578C183.266 283.066 183.131 285.362 182.43 287.907C182.063 289.239 180.398 290.806 180.342 292.288C180.255 294.615 180.555 296.951 180.577 299.363L178.565 300.754L178.3 303.954L174.908 305.968L175.498 308.795C174.187 308.732 172.707 308.566 171.384 308.444C171.741 310.546 171.657 312.653 169.995 314.269C168.657 314.578 168.971 313.304 167.233 313.18C166.61 313.734 166.701 314.172 166.499 315.134C165.162 316.363 164.711 313.43 162.819 313.352C162.495 313.807 162.391 314.082 162.155 314.587L161.599 314.749C160.449 314.461 159.727 313.638 158.811 312.828Z"/><path fill="#F5F4E6" d="M158.811 312.828C158.249 313.429 157.927 313.866 157.187 314.234C157.086 314.189 154.027 310.025 151.6 309.183C149.998 308.626 144.96 302.549 143.773 300.746C140.13 295.211 137.385 287.086 135.909 280.541C135.06 269.151 134.358 256.422 136.182 245.07C138.209 233.262 146.976 212.471 161.766 215.363C172.963 217.553 179.902 235.263 181.54 245.027C182.3 249.554 185.16 252.917 183.439 258.225C182.52 261.062 182.105 258.945 180.371 259.936C180.379 260.868 181.068 260.499 182.051 261.802L181.822 262.216C180.802 262.589 180.595 262.681 179.698 263.287C179.737 264.306 179.768 265.168 179.883 266.188C178.987 265.145 178.397 264.436 177.598 263.305C177.104 249.775 175.831 233.983 165.612 224.053C159.282 218.32 152.758 219.009 147.299 225.641C136.52 238.735 136.644 256.791 137.199 273.109C137.617 285.394 143.956 306.738 159.186 307.638C160.495 307.715 165.329 305.541 165.869 304.328C165.614 303.211 164.839 302.745 163.911 301.854C164.545 301.744 166.647 301.386 167.105 301.139C169.66 299.764 169.907 298.203 172.904 297.817C172.977 296.802 171.823 296.842 171.654 295.478C172.757 294.795 172.766 295.782 173.381 294.819L173.144 294.497C172.841 294.081 172.817 294.02 172.651 293.514C173.049 292.156 175.646 284.405 175.629 283.883C175.499 280.043 179.419 270.479 179.216 267.876L180.633 268.965C181.61 269.789 182.462 270.273 182.75 271.386C181.962 273.393 181.959 273.113 183.751 274.116L183.811 274.544C183.186 275.471 182.844 275.28 181.927 275.842C181.714 277.065 183.648 279.25 184.417 280.267L184.291 280.578C183.266 283.066 183.131 285.362 182.43 287.907C182.063 289.239 180.398 290.806 180.342 292.288C180.255 294.615 180.555 296.951 180.577 299.363L178.565 300.754L178.3 303.954L174.908 305.968L175.498 308.795C174.187 308.732 172.707 308.566 171.384 308.444C171.741 310.546 171.657 312.653 169.995 314.269C168.657 314.578 168.971 313.304 167.233 313.18C166.61 313.734 166.701 314.172 166.499 315.134C165.162 316.363 164.711 313.43 162.819 313.352C162.495 313.807 162.391 314.082 162.155 314.587L161.599 314.749C160.449 314.461 159.727 313.638 158.811 312.828Z"/><defs><linearGradient id="gradient_0" gradientUnits="userSpaceOnUse" x1="162.98466" y1="265.62131" x2="145.96565" y2="266.8746"><stop offset="0" stop-color="#F3DECE"/><stop offset="1" stop-color="#F8F6EB"/></linearGradient></defs><path fill="url(#gradient_0)" d="M155.771 238.567L156.564 237.809C159.718 241.206 162.447 247.277 162.571 251.908C162.756 258.818 163 266.334 162.5 273.213C161.983 280.332 158.779 288.173 153.661 293.178C152.144 294.668 149.437 295.954 147.348 294.915L147.218 294.559C148.503 293.289 151.116 293.185 153.061 291.171C160.285 283.688 161.054 273.616 161.032 263.932C161.007 253.08 161.054 247.997 155.771 238.567Z"/><path fill="#F1D2BE" d="M155.771 238.567C155.207 238.032 154.322 236.197 154.032 235.462C155.027 236.275 155.751 236.799 156.564 237.809L155.771 238.567Z"/><path fill="#F5F4E6" d="M236.849 54.3551C239.211 54.1294 243.117 54.2829 245.531 54.3043C259.923 54.432 277.119 57.9757 290.369 63.5829C318.961 75.9017 341.516 99.0372 353.103 127.934C354.721 131.944 361.596 152.133 360.272 155.249C357.25 157.215 356.226 149.584 355.798 147.629C346.079 103.233 310.317 68.1542 265.442 60.2204C248.006 57.753 227.189 57.8323 210.2 62.3291C183.916 69.2862 157.899 85.1278 139.643 105.135C136.692 108.368 133.877 111.724 131.207 115.194C128.967 118.136 121.576 131.207 118.039 130.439C117.783 130.111 117.738 130.03 117.73 129.622C117.638 125.069 131.982 108.593 135.521 104.53C161.276 74.9895 197.742 56.9323 236.849 54.3551Z"/><path fill="#F5F4E6" d="M144.795 185.505C147.12 186.579 150.854 191.093 152.309 190.943C152.112 189.3 148.938 186.953 148.1 185.158L148.253 184.782C151.909 184.166 157.978 189.816 157.012 193.134C155.975 193.507 155.58 192.762 153.983 192.621L153.719 192.875C153.771 193.698 154.547 194.37 155.126 195.03L155.09 195.376L154.6 195.412L153.981 194.795C152.906 194.641 153.825 195.18 152.245 195.61C150.391 194.852 150.333 195.301 148.698 196.327L146.363 194.872L145.322 195.799C145.638 196.493 146.014 197.034 145.851 197.734C143.581 199.398 142.91 198.181 142.384 200.672C141.338 201.593 140.444 201.594 139.673 202.734C139.541 203.593 139.491 204.16 139.438 205.029C138.326 205.742 137.835 204.571 136.921 205.291C136.359 205.734 135.816 207.849 135.251 208.367C134.611 208.953 133.617 209.086 133.274 209.859C133.645 210.887 134.435 211.717 135.135 212.587C133.963 212.472 131.73 212.029 130.932 212.64C131.327 214.207 132.824 214.517 132.604 215.498C131.229 216.259 131.423 214.995 130.671 215.959C130.511 217.33 130.725 217.323 130.85 218.585C129.488 218.489 127.074 218.046 126.037 219C126.261 220.9 130.047 221.759 130.352 223.451C129.395 223.894 127.778 222.79 126.833 222.304C126.552 222.724 126.312 223.024 126.118 223.489C127.572 224.279 127.804 224.488 129.008 225.617C127.279 225.738 126.196 225.913 124.482 226.228C125.145 227.974 125.775 229.222 126.621 230.899C124.43 229.746 122.116 228.309 119.61 228.471L119.457 228.754C120.478 229.986 122.883 231.006 124.24 231.964C125.279 232.697 126.188 233.468 127.157 234.288C125.563 233.903 123.718 233.163 122.36 233.918C122.195 234.522 122.185 234.594 121.898 235.143C120.229 235.82 118.165 235.082 116.338 234.667C118.203 236.162 120.134 237.153 122.002 238.771C120.162 238.655 118.321 238.553 116.48 238.463C117.927 239.353 119.644 240.279 121.132 241.132C119.974 241.282 118.768 241.159 117.737 241.59C116.953 244.414 116.911 243.972 114.559 244.824L114.451 245.234C114.842 245.762 115.241 245.838 115.869 246.069L116.245 246.204C117.718 246.741 119.788 246.892 121.394 247.081C119.552 247.93 115.555 249.317 114.859 250.835C115.693 252.417 118.034 252.337 119.827 253.527C119.832 254.71 114.619 254.158 113.358 255.468L113.588 255.904C114.77 256.621 118.009 257.344 119.467 257.747C117.775 257.955 114.476 257.992 113.857 259.841C114.887 260.455 115.505 259.806 116.753 260.36C116.706 260.531 116.683 260.66 116.567 260.815C113.094 265.449 106.247 262.923 102.569 259.797C102.187 257.618 109.772 258.473 111.342 256.228C109.714 254.016 105.494 255.384 104.417 254.322C104.644 253.092 107.53 251.91 108.871 250.655L108.788 250.14C107.484 248.976 103.072 248.454 103.049 246.394C103.003 242.034 107.893 244.247 109.72 242.273C109.457 240.545 104.873 241.966 104.705 239.664C105.779 237.783 111.001 238.447 111.37 236.475C110.441 235.159 106.053 234.544 105.543 232.512C106.888 231.21 110.186 232.381 111.48 231.028C111.313 228.889 108.359 227.877 107.501 226.384C107.03 225.563 113.581 223.521 114.336 221.855C113.874 221.278 112.18 220.881 111.278 220.481L111.347 220.186C112.336 219.713 113.029 219.996 114.341 219.496L114.463 219.147C113.793 218.141 112.3 218.138 111.832 217.257C112.023 217.043 116.502 214.977 117.321 214.349L117.331 213.896C116.42 213.136 114.852 212.665 113.693 212.225C114.416 210.23 114.77 209.205 115.872 207.413C116.734 207.876 118.171 208.854 119.042 209.412C119.296 208.432 119.679 207.461 120.027 206.507C119.039 205.742 118.092 205.204 118.053 203.888C119.828 202.822 123.734 205.106 124.88 203.971C124.276 202.619 122.108 201.928 120.716 201.309C122.903 199.115 123.669 198.916 126.716 198.603C126.547 197.264 126.384 195.925 126.229 194.585L129.006 194.738C130.183 192.462 130.855 189.943 133.644 191.325C134.485 190.766 134.569 189.971 135.124 189.204C137.249 186.261 140.618 189.817 142.633 191.222L142.82 191.059C142.121 189.241 141.096 187.9 140.108 186.176C141.656 185.986 143.248 185.732 144.795 185.505Z"/><path fill="#E1824A" d="M126.118 223.489C124.139 222.74 122.192 223.858 121.074 222.335L121.276 222.086C123.375 221.21 124.806 221.483 126.833 222.304C126.552 222.724 126.312 223.024 126.118 223.489Z"/><path fill="#E1824A" d="M143.331 192.536C144.559 193.338 145.248 193.928 146.363 194.872L145.322 195.799C145.011 195.516 143.642 193.07 143.331 192.536Z"/><path fill="#E3753B" d="M111.877 225.359C112.606 225.209 113.271 225.15 113.834 225.625L113.749 226.096C113.074 227.059 112.853 227.083 111.757 227.636C110.451 227.555 109.748 227.767 109.049 226.558L109.285 225.988C110.28 225.307 110.575 225.482 111.877 225.359Z"/><path fill="#F5F4E6" d="M366.693 183.863C370.839 184.242 379.272 188.786 383.683 190.506C383.773 203.924 382.819 215.193 379.359 228.203C378.241 232.408 377.533 235.937 375.944 240.069L373.187 238.867C364.886 235.124 363.725 235.114 354.692 235.788C359.395 224.145 362.766 212.007 364.74 199.606C365.471 194.979 365.606 187.921 366.693 183.863Z"/><path fill="#F5F4E6" d="M336.637 211.821C337.528 211.729 337.636 211.543 338.153 211.944C337.749 212.758 335.714 213.637 334.816 214.046C328.996 216.694 323.9 219.491 318.884 223.527C298.545 239.89 284.609 269.727 281.838 295.27C280.223 310.157 280.038 325.688 287.805 339.001C289.601 342.08 292.113 345.182 294.351 347.977C292.497 347.043 291.272 346.394 289.533 345.282C288.201 344.413 286.957 343.418 285.818 342.309C277.177 333.848 274.305 318.138 274.223 306.05C274.158 296.569 275.803 282.728 278.895 273.477C279.55 271.519 284.831 270.583 284.388 267.102C284.211 265.706 282.967 265.035 282.028 264.278C284.694 254.891 292.746 241.852 299.21 234.479C301.691 231.649 304.117 229.021 306.651 226.296C307.177 225.73 309.123 222.498 309.672 221.665C310.095 221.732 311.3 221.95 311.612 221.78C313.903 220.536 316.324 218.981 318.612 217.777C324.406 214.727 330.248 213.034 336.637 211.821Z"/><path fill="#E1824A" d="M277.291 304.342C278.96 305.099 278.503 306.799 277.317 307.79C275.623 306.876 276.488 305.574 277.291 304.342Z"/><path fill="#F5F4E6" d="M70.2052 274.488C73.5184 270.397 72.7993 263.829 73.1104 258.736C73.5147 252.116 73.3852 244.723 74.8838 238.185C77.0587 228.697 80.8054 218.236 86.2768 210.131C89.099 206.156 94.1991 201.881 98.1633 199.228C96.3455 203.215 92.2279 208.448 89.8781 212.618C82.8515 225.089 80.0544 239.564 79.3524 253.703C78.157 277.781 81.5549 301.002 98.3806 319.456C97.7903 319.28 97.9005 319.224 97.3526 319.295C97.4763 319.676 97.6932 320.258 97.7478 320.632C95.9502 319.453 94.2031 318.199 92.511 316.874C81.4006 308 71.8136 288.548 70.2052 274.488Z"/><path fill="#F5F4E6" d="M343.592 232.238C344.523 232.175 344.15 232.039 344.811 232.441C345.954 236.084 336.37 241.472 333.838 243.685C317.186 258.238 306.391 278.619 304.424 300.679C303.223 314.135 303.786 325.571 311.483 337.255C313.166 339.811 315.467 342.293 317.397 344.681C315.894 344.17 315.289 343.935 313.887 343.204C300.052 336.352 297.772 322.526 297.891 308.637C298.026 292.779 301.761 281.152 308.776 267.038C315.3 253.912 329.372 236.772 343.592 232.238Z"/><path fill="#F5F4E6" d="M99.6337 318.96C91.8717 308.037 87.5621 300.398 85.1092 286.797C80.8853 263.379 81.6732 237.857 91.5226 215.869C95.952 205.981 101.931 195.937 112.448 191.757C113.142 191.484 113.778 191.355 114.406 191.684C113.969 193.228 109.273 195.752 107.992 197.029C92.8451 212.139 86.2319 235.749 86.5448 256.753C86.4492 259.719 86.7154 262.934 86.6097 265.861C86.2192 276.677 87.5799 286.16 90.8933 296.485C93.2431 303.807 97.3123 310.878 100.451 317.99C100.207 318.295 99.9103 318.702 99.6337 318.96Z"/><path fill="#F5F4E6" d="M93.0393 324.883C96.242 325.514 107.997 331.887 111.04 333.896C108.192 339.539 104.918 344.956 101.246 350.101L100.888 350.292C98.439 350.125 86.1927 343.253 83.7136 341.631C86.3125 336.328 89.6204 329.71 93.0393 324.883Z"/><path fill="#F5F4E6" d="M364.501 142.242C363.493 141.081 363.021 139.514 362.352 138.131C357.474 128.036 352.497 117.452 346.649 107.887C345.023 105.2 343.279 102.586 341.424 100.051C339.895 97.9723 334.829 92.1306 334.232 90.3469L334.457 90.1002C336.03 90.7474 340.015 94.3638 341.429 95.6729C353.412 106.771 363.331 120.365 369.857 135.36C370.306 136.39 371.859 140.041 371.9 140.949L371.588 141.279L370.601 140.99C370.364 142.673 370.379 142.355 369.54 143.619L368.834 142.249C368.269 142.807 368.089 142.981 367.635 143.623C367.608 143.774 367.437 144.174 367.375 144.336L366.978 144.325C366.318 143.615 366.335 143.499 366.07 142.529C365.407 142.363 365.193 142.292 364.501 142.242Z"/><path fill="#EEBBA2" d="M366.903 138.275L367.324 138.12C367.998 138.91 367.992 140.733 368.834 142.249C368.269 142.807 368.089 142.981 367.635 143.623C367.608 143.774 367.437 144.174 367.375 144.336L366.978 144.325C366.318 143.615 366.335 143.499 366.07 142.529C365.407 142.363 365.193 142.292 364.501 142.242C364.932 141.186 364.432 140.39 364.506 138.924L365.024 138.528C365.894 138.504 366.088 138.53 366.903 138.275Z"/><path fill="#E1824A" d="M366.903 138.275L367.324 138.12C367.998 138.91 367.992 140.733 368.834 142.249C368.269 142.807 368.089 142.981 367.635 143.623C367.11 141.314 367.011 140.662 366.903 138.275Z"/><path fill="#E1824A" d="M364.501 142.242C364.932 141.186 364.432 140.39 364.506 138.924L365.024 138.528C365.665 139.449 365.877 141.367 366.07 142.529C365.407 142.363 365.193 142.292 364.501 142.242Z"/><path fill="#F5F4E6" d="M128.441 186.456L128.779 186.682C128.717 187.308 116.728 199.089 114.983 201.752C101.736 221.957 97.1152 243.43 97.1611 267.266C97.2134 294.414 104.635 319.073 126.87 336.102C127.327 336.453 127.553 336.803 127.537 337.339L127.018 337.292C92.4714 317.169 91.0321 267.669 98.8247 233.239C102.6 216.559 113.612 195.546 128.441 186.456Z"/><path fill="#F5F4E6" d="M364.516 158.086C367.7 158.994 380.137 166.215 383.287 168.273C383.824 171.557 384.347 180.399 384.247 183.547C379.024 181.655 371.836 178.379 366.958 175.621C366.471 173.444 366.044 169.454 365.687 167.152C365.327 164.823 364.577 160.314 364.516 158.086Z"/><path fill="#F5F4E6" d="M119.779 135.332C124.194 138.109 134.337 142.06 137.621 145.389C135.877 148.748 134.074 152.016 131.416 154.737C129.454 154.96 116.412 147.877 113.951 146.477C115.254 142.7 117.916 139.031 119.779 135.332Z"/><path fill="#F5F4E6" d="M360.113 177.664C360.844 177.827 362.107 178.154 362.337 178.844C364.241 184.552 361.914 198.078 360.77 203.599C358.584 214.145 355.871 225.173 351.244 234.748C350.294 236.711 348.584 238.276 346.91 239.4C346.225 239.702 345.662 240 344.986 239.723C344.966 239.071 347.462 234.194 347.913 233.163C353.562 220.282 356.765 206.315 358.292 192.367C358.635 189.238 358.184 179.46 360.113 177.664Z"/><path fill="#F5F4E6" d="M106.678 148.179L107.602 148.316C108.995 150.021 104.822 158.15 103.901 160.256C102.114 164.323 100.486 168.458 99.0196 172.651C97.5635 176.916 96.2 181.344 95.0485 185.699C93.3761 192.024 92.6689 199.636 88.2956 204.808L87.5154 204.9C87.1991 204.41 87.1033 204.416 87.1737 203.686C87.3883 201.463 88.2404 198.676 88.6063 196.531C90.2828 186.705 100.098 154.15 106.678 148.179Z"/><path fill="#F4E8DF" d="M208.358 74.5619L209.162 74.5413L209.283 74.8622C207.926 76.4278 187.184 84.6061 182.873 87.7171C175.32 93.1688 166.222 98.6625 158.967 104.978C156.962 106.724 153.517 109.587 151.387 110.809C150.495 110.688 150.816 110.894 150.3 110.345C150.461 109.658 155.26 105.625 156.192 104.683C167.839 92.9164 182.246 83.2399 197.933 77.812C201.41 76.6088 204.731 75.2711 208.358 74.5619Z"/><path fill="#F5F4E6" d="M196.8 73.5069C197.365 73.5667 197.113 73.4729 197.532 73.8716C197.145 75.2936 189.012 79.454 187.472 80.2939C178.131 85.4225 169.174 91.2208 160.671 97.6434C155.89 101.281 150.786 105.774 146.121 109.149L145.784 109.135L145.62 108.817C145.672 108.705 145.724 108.592 145.776 108.48C156.638 93.8018 181.018 79.1961 196.8 73.5069Z"/><path fill="#F4E8DF" d="M204.135 79.5836C205.66 78.92 209.686 77.2049 211.184 77.6257C210.876 78.7449 206.277 80.4769 205.161 80.8818C204.039 81.5479 199.802 83.2352 198.269 83.9853C191.769 87.166 184.515 90.5366 178.531 94.6038C172.846 98.4682 167.082 103.439 161.645 107.703C158.311 110.318 155.73 113.539 151.898 115.656C153.487 112.601 157.175 109.367 159.734 107.022C171.06 96.6435 183.458 87.3158 197.934 81.8213C199.845 81.0961 202.172 80.0664 204.135 79.5836Z"/><path fill="#F1D2BE" d="M204.135 79.5836C205.66 78.92 209.686 77.2049 211.184 77.6257C210.876 78.7449 206.277 80.4769 205.161 80.8818C205.723 80.1802 206.451 79.7905 207.211 79.2916C206.187 79.4011 205.161 79.4984 204.135 79.5836Z"/><path fill="#F4E8DF" d="M94.2537 358.564C94.3161 358.581 94.3785 358.599 94.4409 358.617C96.0768 358.9 94.8947 362.264 94.7896 363.7C94.0405 372.609 98.9776 378.025 104.985 383.372C114.467 391.812 123.569 389.948 135.187 389.269C136.796 389.175 141.755 388.509 143.169 388.923L143.301 389.352L142.902 389.832C136.014 391.466 122.332 391.725 115.514 390.63C107.625 389.364 95.8052 379.32 94.0452 371.228C93.246 367.553 92.268 361.947 94.2537 358.564Z"/><path fill="#F5F4E6" d="M360.269 157.528L360.875 157.528C361.408 157.934 361.41 157.878 361.565 158.717C362.006 161.113 364.269 173.036 363.281 174.639C361.893 175.404 360.609 175.218 359.06 175.115L358.402 174.62C357.203 172.419 355.771 162.367 355.392 159.447C357.195 158.504 358.326 158.057 360.269 157.528Z"/><path fill="#E3753B" d="M358.952 159.136C360.858 160.188 362.358 171.985 361.701 173.586C360.907 173.509 360.927 173.533 360.159 173.177C359.173 171.898 358.001 160.738 358.952 159.136Z"/><path fill="#F5F4E6" d="M323.893 259.014C324.956 258.859 325.542 258.689 326.28 259.541C326.115 261.946 318.586 276.764 316.89 277.438C316.142 276.974 316.265 276.821 315.801 275.871L315.371 275.47C314.379 275.519 313.455 276.15 312.544 276.64C314.911 270.276 318.376 263.171 323.893 259.014Z"/><defs><linearGradient id="gradient_1" gradientUnits="userSpaceOnUse" x1="327.47449" y1="229.66232" x2="325.1748" y2="225.68312"><stop offset="0" stop-color="#FAE2CC"/><stop offset="1" stop-color="#F8F4F2"/></linearGradient></defs><path fill="url(#gradient_1)" d="M341.924 218.347L345.194 218.183C342.68 219.568 338.467 221.04 335.501 222.505C326.578 226.91 320.129 231.835 312.726 238.321C312.434 238.591 310.899 239.649 310.488 239.945C311.073 239.043 311.689 238.161 312.334 237.3C318.635 229.071 331.485 219.707 341.924 218.347Z"/><path fill="#F5F4E6" d="M113.857 131.261C114.541 131.329 117.612 131.956 117.216 132.975C115.943 136.248 112.206 143.533 109.632 145.699C107.912 145.112 107.075 144.452 105.65 143.396C107.218 139.788 110.798 133.63 113.857 131.261Z"/><path fill="#E3753B" d="M113.385 134.09C114.137 134.496 113.888 134.202 114.174 134.989C113.851 137.661 110.819 141.637 109.247 143.917C108.819 143.766 109.024 143.891 108.667 143.491C108.837 141.028 111.691 136.002 113.385 134.09Z"/><path fill="#F5F4E6" d="M184 381.385C181.754 380.796 167.602 385.52 165.007 382.937C164.722 381.347 165.729 380.432 167.104 380.006C169.907 379.136 182.787 377.687 184.831 378.627C185.547 379.397 185.662 380.24 185.955 381.276C185.326 381.347 184.616 381.472 184 381.385Z"/><path fill="#F5F4E6" d="M101.388 269.424C101.97 269.024 102.575 268.658 103.199 268.329C104.884 267.444 113.63 264.314 114.674 266.55L114.273 267.244C114.957 267.49 115.149 267.499 115.844 267.479C116.181 267.785 116.204 267.747 116.433 268.122C117.426 268.252 117.102 268.017 117.611 268.592C117.042 270.074 114.184 270.568 112.947 269.602C112.204 269.629 111.62 269.552 111.026 269.959C110.875 270.428 110.903 270.31 110.606 270.728L110.106 270.811C109.315 270.348 108.969 269.6 108.461 268.802C106.23 268.868 103.63 269.184 101.388 269.424Z"/><path fill="#E3753B" d="M114.273 267.244C114.957 267.49 115.149 267.499 115.844 267.479C116.181 267.785 116.204 267.747 116.433 268.122C117.426 268.252 117.102 268.017 117.611 268.592C117.042 270.074 114.184 270.568 112.947 269.602C112.204 269.629 111.62 269.552 111.026 269.959L110.414 269.302L110.434 268.839C111.025 268.454 113.194 267.744 114.273 267.244Z"/><path fill="#EEBBA2" d="M116.433 268.122C117.426 268.252 117.102 268.017 117.611 268.592C117.042 270.074 114.184 270.568 112.947 269.602C113.801 269.083 115.452 268.505 116.433 268.122Z"/><path fill="#F5F4E6" d="M71.3377 237.109C74.3612 238.605 70.8395 249.638 69.4885 252.036C68.8881 252.064 69.1639 252.127 68.6725 251.755C67.7497 248.479 69.0142 239.735 71.3377 237.109Z"/><path fill="#F5F4E6" d="M114.028 168.985C114.881 168.97 116.359 168.871 117.03 169.435C118.871 170.984 117.217 175.256 116.03 176.696C114.656 177.049 114.176 177.308 113.128 176.298C112.375 174.342 113.514 171.076 114.028 168.985Z"/><path fill="#F5F4E6" d="M146.042 340.433C145.179 340.638 144.346 340.929 143.489 340.772C142.755 339.651 143.668 339.78 142.971 338.715C141.505 338.625 139.766 340.299 138.732 339.553C138.771 337.796 143.868 335.019 145.496 334.926C145.642 336.27 145.714 337.501 145.789 338.849C145.674 339.681 145.732 339.681 146.042 340.433Z"/><path fill="#F5F4E6" d="M156.145 187.011C161.686 186.427 163.904 190.805 162.748 195.605C160.535 194.389 160.694 190.79 158.768 189.296C157.415 188.246 156.503 189.199 156.145 187.011Z"/><path fill="#F1D2BE" d="M108.781 273.267C110.02 272.845 113.056 271.59 114.128 272.106C113.835 272.843 112.733 273.343 112.013 273.648C111.031 274.06 110.03 274.429 109.015 274.752C110.525 274.813 112.062 274.783 113.494 275.234L113.724 275.488C112.665 276.024 110.612 276.257 109.487 276.063C107.171 276.001 105.793 275.816 103.532 275.485C105.318 274.598 106.917 273.952 108.781 273.267Z"/><path fill="#F4E8DF" d="M103.532 275.485C105.318 274.598 106.917 273.952 108.781 273.267C109.454 273.993 109.93 275.071 109.487 276.063C107.171 276.001 105.793 275.816 103.532 275.485Z"/><path fill="#F4E8DF" d="M270.989 253.941C272.092 254.219 279.59 259.095 280.645 260.209C280.949 260.948 280.754 261.287 280.533 262.068C278.621 261.912 271.299 255.877 270.989 253.941Z"/><path fill="#F1D2BE" d="M284.967 228.19C287.172 228.433 292.992 233.269 295.263 234.667C296.052 235.152 295.992 235.623 296.072 236.342C293.645 235.725 285.523 230.519 284.967 228.19Z"/><path fill="#F4E8DF" d="M301.07 213.496C303.224 213.511 310.427 217.645 310.894 219.745C308.461 219.494 301.867 215.831 301.07 213.496Z"/><path fill="#F5F4E6" d="M140.027 332.695C141.054 332.786 140.788 332.618 141.497 333.173L141.492 333.771C140.464 335.634 138.304 336.768 136.355 337.423C135.519 337.247 135.186 337.323 134.755 336.593C135.175 335.031 138.591 333.399 140.027 332.695Z"/><path fill="#F4E8DF" d="M297.658 218.459C299.958 218.413 304.381 221.094 306.224 222.681C306.826 223.2 306.682 223.657 306.663 224.343C306.082 224.485 306.28 224.451 305.665 224.402C303.546 222.756 298.615 220.303 297.658 218.459Z"/><path fill="#F5F4E6" d="M91.203 353.718C93.5927 353.797 97.9457 354.824 97.6019 357.895C95.3832 357.53 90.9099 356.527 91.203 353.718Z"/><path fill="#F1D2BE" d="M266.525 266.423C267.531 266.523 273.681 271.168 275.3 271.664C275.891 271.846 276.053 272.934 276.16 273.519C273.835 272.641 266.802 269.025 266.525 266.423Z"/><path fill="#F5F4E6" d="M111.366 283.575C112.545 283.501 114.133 283.392 115.209 283.789L115.37 284.159C114.366 285.146 112.455 285.38 111.038 285.685C109.094 285.976 107.838 285.839 105.87 285.702C107.632 284.725 109.434 284.101 111.366 283.575Z"/><path fill="#F4E8DF" d="M185.955 381.276C186.4 383.789 186.844 385.869 186.597 388.448L186.375 388.689C184.994 387.188 184.548 383.245 184 381.385C184.616 381.472 185.326 381.347 185.955 381.276Z"/><path fill="#F5F4E6" d="M133.749 330.936C134.797 331 135.796 331.215 135.844 332.376C134.955 333.762 134.223 333.893 132.696 334.489C131.978 334.69 131.55 334.897 130.84 334.697L130.681 334.329C131.17 333.054 132.701 331.835 133.749 330.936Z"/><path fill="#F1D2BE" d="M311.679 210.724C313.659 210.668 318.359 213.116 319.332 214.742C317.043 214.853 312.835 212.764 311.679 210.724Z"/><path fill="#F4E8DF" d="M283.289 242.578C284.554 243.262 287.059 244.38 287.495 245.677C286.116 246.501 282.752 244.197 281.439 243.416L281.488 243.026C282.115 242.459 282.197 242.651 283.289 242.578Z"/><path fill="#F1D2BE" d="M292.142 227.699C294.368 227.94 298.152 229.271 299.021 231.512C296.584 231.466 293.395 229.812 292.142 227.699Z"/><path fill="#F4E8DF" d="M100.451 317.99C101.253 319.444 101.655 321.014 102.069 322.623C100.602 322.145 98.973 321.615 97.7478 320.632C97.6932 320.258 97.4763 319.676 97.3526 319.295C97.9005 319.224 97.7903 319.28 98.3806 319.456C99.0077 319.944 99.287 320.283 100.07 320.302C100.133 319.596 100.04 319.714 99.6337 318.96C99.9103 318.702 100.207 318.295 100.451 317.99Z"/><path fill="#EEBBA2" d="M290.735 220.35C293.039 221.377 296.81 223.643 299.009 225.064L297.938 225.96C295.402 224.625 292.692 222.443 290.735 220.35Z"/><path fill="#F1D2BE" d="M317.747 208.242C319.962 208.454 323.168 210.231 323.554 212.588C321.978 212.177 318.117 209.939 317.747 208.242Z"/><path fill="#F5F4E6" d="M146.888 385.056C149.01 385.992 149.222 388.928 148.735 390.913C146.654 389.312 146.247 387.548 146.888 385.056Z"/><path fill="#F4E8DF" d="M297.938 225.96L299.009 225.064C300.167 225.654 302.968 226.559 303.39 226.972C303.397 227.793 303.495 227.402 302.972 228.149C301.253 228.746 299.418 226.858 297.938 225.96Z"/><path fill="#F1D2BE" d="M113.861 291.008C114.319 290.942 114.486 290.971 114.952 290.984L115.189 291.312L114.953 291.77C113.151 293.008 112.689 293.063 110.605 293.479C109.893 293.51 109.668 293.566 108.987 293.316L109.043 292.959C110.248 292.214 112.449 291.514 113.861 291.008Z"/><path fill="#EEBBA2" d="M273.037 246.471C273.466 246.514 273.886 246.614 274.288 246.768C275.639 247.303 278.473 249.202 279.078 250.558C277.284 250.276 273.251 248.498 273.037 246.471Z"/><path fill="#F1D2BE" d="M308.563 212.691C310.706 213.081 314.421 215.224 315.249 217.337C313.155 217.31 310.029 214.175 308.563 212.691Z"/><path fill="#F4E8DF" d="M127.936 326.496C128.549 326.413 128.507 326.402 129.051 326.695L128.983 327.213C127.756 328.516 126.292 328.989 124.636 329.514L123.896 329.357L123.851 328.948C124.838 327.727 126.503 327.04 127.936 326.496Z"/><path fill="#EEBBA2" d="M265.501 287.472C267.237 287.53 271.158 289.396 272.269 290.741C270.427 291.492 266.574 289.049 265.501 287.472Z"/><path fill="#EEBBA2" d="M264.576 305.521C266.571 305.756 270.293 307.658 270.714 309.794C269.252 309.346 265.039 306.972 264.576 305.521Z"/><path fill="#F1D2BE" d="M271.494 330.012C273.208 329.895 276.941 331.736 277.422 333.461C275.715 333.211 272.177 331.672 271.494 330.012Z"/><path fill="#EEBBA2" d="M115.722 300.531C116.052 300.722 116.046 300.809 116.304 301.142L116.175 301.61C114.873 302.619 112.456 302.775 110.806 302.988L110.407 302.76L110.543 302.385C111.746 301.7 114.306 300.979 115.722 300.531Z"/><path fill="#F1D2BE" d="M125.012 320.491C125.345 320.656 125.299 320.694 125.565 321.012L125.44 321.452C124.187 322.626 122.558 323.041 120.928 323.433C120.699 323.379 120.673 323.293 120.462 323.102C120.949 321.933 123.714 321.034 125.012 320.491Z"/><path fill="#F1D2BE" d="M266.272 315.281C268.296 315.294 271.089 315.701 271.934 317.725C270.026 317.723 267.273 317.031 266.272 315.281Z"/><path fill="#F1D2BE" d="M131.109 328.99C131.573 329.173 131.369 329.035 131.658 329.498C131.007 330.733 128.68 331.682 127.401 332.301L126.877 332.001L126.84 331.53C127.675 330.339 129.762 329.58 131.109 328.99Z"/><path fill="#F1D2BE" d="M267.69 320.235C269.317 320.329 272.635 321.554 273.385 323.041C271.583 322.955 268.176 322.167 267.69 320.235Z"/><path fill="#EEBBA2" d="M286.523 237.025C287.673 237.045 288.811 237.261 289.888 237.664C291.31 238.209 291.739 238.544 292.258 239.757C290.635 239.854 287.467 238.342 286.523 237.025Z"/><path fill="#F4E8DF" d="M179.883 266.188C179.768 265.168 179.737 264.306 179.698 263.287C180.907 265.586 183.25 266.062 183.751 267.232C182.993 267.482 183.377 267.399 182.43 267.218C181.357 266.977 180.946 266.805 179.912 266.391L179.883 266.188Z"/><path fill="#F1D2BE" d="M269.245 279.755C271.026 279.893 273.748 280.648 274.283 282.516C272.624 282.378 269.665 281.544 269.245 279.755Z"/><path fill="#F4E8DF" d="M281.82 246.829C283.2 246.768 284.297 246.522 285.361 247.311C285.692 248.049 285.453 248.548 285.254 249.358C283.971 249.028 282.181 248.177 281.82 246.829Z"/><path fill="#F4E8DF" d="M369.54 143.619C370.379 142.355 370.364 142.673 370.601 140.99C371.026 143.666 371.497 146.335 372.016 148.995C370.828 147.028 370.357 145.778 369.54 143.619Z"/><path fill="#F1D2BE" d="M270.682 325.824C272.481 326.005 274.622 326.647 275.095 328.599C273.732 328.541 270.687 327.414 270.682 325.824Z"/><path fill="#F4E8DF" d="M145.789 338.849C147.135 338.617 148.651 337.376 149.88 337.702C149.523 338.921 147.176 340.033 146.042 340.433C145.732 339.681 145.674 339.681 145.789 338.849Z"/><path fill="#F1D2BE" d="M323.45 207.435C325.18 207.513 327.618 209.023 328.324 210.611C326.653 210.787 324.144 208.886 323.45 207.435Z"/><path fill="#F4E8DF" d="M267.276 294.774C269.104 294.762 270.702 295.189 271.331 297.017C269.506 297.171 267.658 296.818 267.276 294.774Z"/><path fill="#F4E8DF" d="M274.957 264.001C276.831 264.354 279.004 264.284 279.132 266.471C277.462 266.61 275.465 265.674 274.957 264.001Z"/><path fill="#EEBBA2" d="M266.792 311.779C268.309 311.663 271.102 312.52 271.749 314.03C270.409 314.649 267.444 313.015 266.792 311.779Z"/><path fill="#F1D2BE" d="M277.559 240.521C280.148 241.075 280.967 241.315 283.289 242.578C282.197 242.651 282.115 242.459 281.488 243.026L281.439 243.416C279.917 242.656 278.799 241.657 277.559 240.521Z"/><path fill="#F4E8DF" d="M271.176 275.726C273.08 275.601 274.664 276.442 275.372 278.25C273.507 278.399 272.117 277.244 271.176 275.726Z"/><path fill="#EEBBA2" d="M267.738 260.459C269.373 260.549 271.386 261.552 271.745 263.278C270.015 262.899 268.23 262.284 267.738 260.459Z"/><path fill="#E4B354" d="M266.132 89.1531C271.752 91.1023 287.477 92.241 282.908 102.379C281.453 105.605 280.31 106.478 276.815 106.787C277.873 109.79 279.179 113.621 279.789 116.711C281.842 114.604 284.461 112.548 286.718 110.617C290.758 107.161 294.841 103.79 298.765 100.196C300.505 101.349 303.587 103.054 305.431 103.977L303.176 118.052C302.565 122.008 302.03 126.231 301.156 130.114C306.463 124.295 312.943 118.432 318.49 112.61C320.107 114.191 321.69 115.807 323.238 117.457C321.127 119.269 318.733 121.631 316.675 123.565C318.76 125.407 321.601 128.305 323.125 130.526C324.928 128.292 327.445 125.732 329.451 123.596L331.183 125.447L334.108 128.312C328.313 133.793 322.003 140.126 316.452 145.838L311.741 141.15C314.092 138.748 316.484 136.388 318.918 134.071C316.786 131.943 314.633 129.833 312.601 127.608C310.218 129.886 307.782 132.388 305.431 134.722C300.108 129.815 301.765 129.966 294.526 126.408C295.163 124.695 295.418 123.508 295.823 121.71C293.389 120.291 290.973 118.843 288.574 117.365C287.292 118.517 285.964 119.876 284.725 121.093C280.584 118.109 278.116 117.986 273.192 116.688C272.635 115.006 270.994 106.575 268.999 106.763C267.72 108.119 266.952 113.141 266.549 115.171C264.324 114.532 262.369 113.937 260.07 113.609C262.182 106.527 264.489 96.4045 266.132 89.1531Z"/><path fill="#F5F4E6" d="M271.121 96.0845C274.779 96.5963 278.964 97.8663 275.896 102.143C274.195 102.46 271.636 101.901 269.855 101.6C270.418 99.8716 270.761 97.8829 271.121 96.0845Z"/><path fill="#F5F4E6" d="M298.172 108.444L298.47 108.87C298.172 111.21 297.536 114.013 297.065 116.361C296.167 115.747 295.057 115.114 294.113 114.544C293.69 114.308 292.585 113.863 292.091 113.646C293.981 112.174 296.317 110.043 298.172 108.444Z"/><path fill="#E4B354" d="M333.858 138.984C341.057 138.672 347.172 144.202 347.582 151.397C347.993 158.592 342.547 164.781 335.358 165.29C330.62 165.625 326.068 163.384 323.445 159.424C320.822 155.464 320.533 150.399 322.689 146.167C324.845 141.934 329.112 139.19 333.858 138.984Z"/><path fill="#F5F4E6" d="M334.217 145.549C342.234 145.394 344.609 156.705 334.599 158.661C331.634 158.775 328.881 157.227 327.895 154.341C327.354 152.772 327.501 151.048 328.298 149.592C329.688 147.056 331.671 146.284 334.217 145.549Z"/><path fill="#E4B354" d="M199.804 99.6839C200.718 100.016 211.855 118.271 213.742 120.766C211.775 121.769 209.904 123.019 208.041 124.209C206.507 123.324 203.815 122.22 202.138 121.464C198.612 119.902 195.119 118.268 191.66 116.563C193.692 118.935 198.377 126.612 200.096 129.422C198.693 130.163 196.984 131.306 195.613 132.169C195.55 132.239 195.099 132.514 195.002 132.576C194.859 132.533 194.716 132.491 194.573 132.448C191.49 127.791 184.134 115.63 181.3 111.689C183.472 110.494 184.96 109.55 187.011 108.185C189.688 109.742 199.528 113.87 202.638 115.11C200.684 112.213 196.681 105.445 194.609 103.135C196.301 102.326 198.355 100.881 199.804 99.6839Z"/><path fill="#E4B354" d="M174.392 117.893C175.188 118.225 179.316 122.133 180.147 122.908C183.509 126.047 188.998 129.602 189.44 134.574C190.06 140.073 184.451 146.514 178.981 146.75C173.229 146.999 166.561 139.796 162.346 136.132C161.743 135.541 160.805 134.858 160.119 134.325C161.722 132.627 163.038 130.962 164.473 129.14C166.183 130.912 168.544 132.859 170.403 134.534C172.473 136.398 176.229 140.263 179.054 140.223C180.033 140.21 180.963 139.791 181.62 139.064C185.538 134.734 180.153 131.517 177.184 128.941C174.831 126.9 172.371 124.917 169.976 122.923C171.472 121.268 172.944 119.591 174.392 117.893Z"/><path fill="#E4B354" d="M248.34 88.3609L248.879 88.333L249.204 88.6474C249.522 90.2117 249.477 92.3225 249.501 93.9654C245.716 94.0824 241.876 94.4025 238.044 94.5225C238.207 95.8755 238.265 97.303 238.347 98.6684C241.548 98.4721 244.851 98.1596 248.061 97.9068C248.157 99.6581 248.234 101.41 248.292 103.163C245.139 103.271 241.918 103.58 238.732 103.718C238.954 104.973 239.085 106.98 239.209 108.306C241.499 108.22 249.383 106.886 250.757 107.683L250.895 108.445L251.333 113.009C245.433 113.493 239.127 113.861 233.29 114.567C233.114 107.589 231.771 96.7823 231.135 89.5467C236.171 89.5481 243.142 88.7355 248.34 88.3609Z"/><path fill="#E4B354" d="M157.874 141.92C159.272 141.855 160.832 145.239 161.529 146.439C158.818 148.005 155.432 151.091 156.423 154.533C157.657 155.829 159.456 154.01 160.463 153.034C163.351 150.196 166.476 146.376 171.03 147.477C174.002 148.081 176.995 153.73 176.231 156.508C174.852 161.528 172.062 165.048 167.963 168.021C167.557 168.275 167.789 168.192 167.198 168.1C166.235 166.945 165.122 164.802 164.351 163.432C166.929 162.074 173.215 156.549 169.55 153.927C165.611 153.439 160.127 166.871 153.099 159.764C147.302 153.903 152.284 145.594 157.874 141.92Z"/><path fill="#E4B354" d="M224.673 90.763C225.327 91.2515 226.403 95.5344 226.713 96.5948C224.615 97.2254 222.508 97.8264 220.393 98.3977C222.515 103.373 224.328 111.05 226.464 116.509C224.423 117.078 222.049 117.895 220.003 118.545C219.599 116.866 218.91 114.863 218.38 113.188C217.224 109.354 215.231 104.312 214.388 100.573L208.046 102.779C207.487 100.812 206.879 98.8267 206.297 96.8632C212.276 94.7894 218.836 93.0051 224.673 90.763Z"/></svg>